<svg width="32" height="32" viewBox="0 0 32 32" fill="none" xmlns="http://www.w3.org/2000/svg">
<rect width="32" height="32" rx="16" fill="#FF5300"/>
<path d="M13.5002 23.2C13.9002 23.2 14.4802 23.02 14.8602 22.86C15.3802 22.66 15.9002 22.54 16.3602 22.54C16.7802 22.54 17.2602 22.66 17.8202 22.86C18.3402 23.08 18.7802 23.2 19.1602 23.2C19.6802 23.2 20.1602 22.96 20.6202 22.54C20.9002 22.32 21.2802 21.84 21.7402 21.18C22.0802 20.72 22.3802 20.18 22.6402 19.6L22.9202 18.84C21.6402 18.3 20.6802 17.08 20.6802 15.5C20.6402 14.14 21.2602 13.08 22.5002 12.34C21.7802 11.34 20.7602 10.8 19.4002 10.7C18.8602 10.66 18.2402 10.78 17.5202 11.04C16.7402 11.32 16.2602 11.46 16.1202 11.46C15.9602 11.46 15.5202 11.34 14.9002 11.08C14.2202 10.86 13.7202 10.74 13.3202 10.74C12.6002 10.76 11.9402 10.92 11.3202 11.3C10.6802 11.66 10.2002 12.16 9.8202 12.82C9.3402 13.6 9.0802 14.56 9.0802 15.66C9.0802 16.6 9.2602 17.6 9.6402 18.64C9.9602 19.58 10.3802 20.4 10.8802 21.12C11.3802 21.82 11.7602 22.28 12.0802 22.54C12.5402 22.98 13.0202 23.2 13.5002 23.2ZM16.0202 10.38C16.0202 10.48 16.0202 10.58 16.0402 10.68C17.7802 10.84 19.4602 8.94005 19.4602 7.12005V6.80005C19.0402 6.82005 18.5802 6.94005 18.1202 7.18005C16.8402 7.82005 16.0202 9.10005 16.0202 10.38Z" fill="white"/>
</svg>
