<svg width="48" height="48" fill="none" xmlns="http://www.w3.org/2000/svg"><rect width="48" height="48" rx="24" fill="#252333"/><path d="M24 33.84c6.24-2.472 9.36-6.408 9.36-11.712v-5.04c-2.664-1.92-5.904-2.928-9.36-2.928-3.456 0-6.696 1.008-9.36 2.928v5.04c0 5.304 3.12 9.24 9.36 11.712Zm-7.44-11.712V18c2.232-1.392 4.632-2.04 7.44-2.04 2.808 0 5.208.648 7.44 2.04v4.128c0 4.512-2.232 7.512-7.44 9.744-5.208-2.232-7.44-5.232-7.44-9.744Zm3.36 1.176 3.36 3.384L28.944 21 27.6 19.656l-4.32 4.296-2.016-1.992-1.344 1.344Z" fill="#BBB0FF"/></svg>