<svg width="72" height="24" viewBox="0 0 72 24" fill="none" xmlns="http://www.w3.org/2000/svg">
<path d="M61.3616 22.4887V23.9996H71.7318V17.1853H70.2208V22.4887H61.3616ZM61.3616 0V1.51096H70.2208V6.81473H71.7318V0H61.3616ZM56.0137 11.689V8.17796H58.3842C59.5398 8.17796 59.9546 8.56305 59.9546 9.61506V10.2372C59.9546 11.3186 59.5545 11.689 58.3842 11.689H56.0137ZM59.7764 12.311C60.8578 12.0296 61.6133 11.022 61.6133 9.82231C61.6133 9.06683 61.3172 8.38521 60.7542 7.83698C60.0432 7.15536 59.0948 6.81473 57.8653 6.81473H54.5322V17.1849H56.0137V13.0518H58.2361C59.3767 13.0518 59.836 13.5258 59.836 14.7112V17.1853H61.3469V14.9482C61.3469 13.3186 60.9618 12.6965 59.7764 12.5187V12.311ZM47.303 12.6517H51.866V11.2888H47.303V8.17761H52.3102V6.81473H45.7916V17.1849H52.5325V15.822H47.303V12.6517ZM42.3398 13.1999V13.9109C42.3398 15.4072 41.7916 15.8963 40.414 15.8963H40.0881C38.7102 15.8963 38.0436 15.4516 38.0436 13.3925V10.6072C38.0436 8.53329 38.7399 8.10338 40.1175 8.10338H40.4137C41.7618 8.10338 42.1914 8.60716 42.2061 9.99979H43.8357C43.6876 7.9553 42.3248 6.66665 40.2803 6.66665C39.2878 6.66665 38.4581 6.97787 37.836 7.57021C36.9027 8.44437 36.3842 9.92593 36.3842 11.9998C36.3842 13.9999 36.8288 15.4814 37.7471 16.3997C38.3692 17.0071 39.2286 17.333 40.073 17.333C40.9619 17.333 41.7769 16.9773 42.1914 16.2071H42.3986V17.1849H43.7615V11.837H39.7467V13.1999H42.3398ZM29.2737 8.17761H30.8886C32.4146 8.17761 33.2443 8.5627 33.2443 10.6369V13.3627C33.2443 15.4366 32.4146 15.822 30.8886 15.822H29.2737V8.17761ZM31.0216 17.1853C33.8513 17.1853 34.903 15.0372 34.903 12.0002C34.903 8.91874 33.7771 6.81509 30.9919 6.81509H27.7917V17.1853H31.0216ZM20.6367 12.6517H25.1997V11.2888H20.6367V8.17761H25.644V6.81473H19.1254V17.1849H25.8663V15.822H20.6367V12.6517ZM11.8962 6.81473H10.3852V17.1849H17.2V15.822H11.8962V6.81473ZM0 17.1853V24H10.3702V22.4887H1.51096V17.1853H0ZM0 0V6.81473H1.51096V1.51096H10.3702V0H0Z" fill="white"/>
</svg>
