<svg width="48" height="48" viewBox="0 0 48 48" fill="none" xmlns="http://www.w3.org/2000/svg">
<rect width="48" height="48" rx="24" fill="#252332"/>
<path d="M20.256 29.5439V33.8399H27.744V29.5439C27.744 28.6559 27.888 28.3679 28.872 27.2879L29.424 26.6639C30.816 25.1039 31.512 23.4479 31.512 21.5279C31.512 17.1839 27.984 14.1599 24 14.1599C20.016 14.1599 16.488 17.1839 16.488 21.5279C16.488 23.4479 17.184 25.1039 18.576 26.6639L19.128 27.2879C20.112 28.3679 20.256 28.6559 20.256 29.5439ZM18.408 21.5279C18.408 18.2159 21.024 15.9599 24 15.9599C26.976 15.9599 29.592 18.2159 29.592 21.5279C29.592 23.0159 29.064 24.2639 27.984 25.4639L27.432 26.0879C26.4 27.2639 25.92 28.0559 25.848 29.1599H24.912V24.4799H23.112V29.1599H22.152C22.08 28.0559 21.6 27.2639 20.568 26.0879L20.016 25.4639C18.936 24.2639 18.408 23.0159 18.408 21.5279ZM22.176 32.0399V30.8399H25.824V32.0399H22.176Z" fill="#BBB0FF"/>
</svg>
