<svg width="48" height="48" viewBox="0 0 48 48" fill="none" xmlns="http://www.w3.org/2000/svg">
<rect width="48" height="48" rx="24" fill="#252332"/>
<path d="M13 14L12.7476 13.0324L12 13.2274V14H13ZM36 14H37V13.2274L36.2524 13.0324L36 14ZM36 28.8L36.6977 29.5164L37 29.222V28.8H36ZM13 28.8H12V29.222L12.3023 29.5164L13 28.8ZM24.5 11L24.7524 10.0324L24.5 9.96653L24.2476 10.0324L24.5 11ZM30.0816 34.564L30.7793 35.2804L30.0816 34.564ZM18.9184 34.564L18.2207 35.2804L18.9184 34.564ZM20.8321 23.5882L20.2774 22.7561L18.6132 23.8655L19.1679 24.6976L20.8321 23.5882ZM22.5714 28L21.7394 28.5547L23.3852 28.5812L22.5714 28ZM29.8137 19.5812L30.395 18.7675L28.7675 17.605L28.1863 18.4188L29.8137 19.5812ZM35 14V28.8H37V14H35ZM14 28.8V14H12V28.8H14ZM35.3023 28.0836L29.3839 33.8476L30.7793 35.2804L36.6977 29.5164L35.3023 28.0836ZM19.6161 33.8476L13.6977 28.0836L12.3023 29.5164L18.2207 35.2804L19.6161 33.8476ZM13.2524 14.9676L24.7524 11.9676L24.2476 10.0324L12.7476 13.0324L13.2524 14.9676ZM24.2476 11.9676L35.7476 14.9676L36.2524 13.0324L24.7524 10.0324L24.2476 11.9676ZM29.3839 33.8476C26.666 36.4946 22.334 36.4946 19.6161 33.8476L18.2207 35.2804C21.7152 38.6837 27.2848 38.6837 30.7793 35.2804L29.3839 33.8476ZM19.1679 24.6976L21.7394 28.5547L23.4035 27.4453L20.8321 23.5882L19.1679 24.6976ZM23.3852 28.5812L29.8137 19.5812L28.1863 18.4188L21.7577 27.4188L23.3852 28.5812Z" fill="#BBB0FF"/>
</svg>
