<svg width="153" height="24" viewBox="0 0 153 24" fill="none" xmlns="http://www.w3.org/2000/svg">
<path d="M142.259 22.4887V24H153V17.1853H151.435V22.4887H142.259ZM142.259 0V1.51096H151.435V6.81473H153V0H142.259ZM58.8589 11.689V8.17761H61.3129C62.5098 8.17761 62.9395 8.56305 62.9395 9.6147V10.2372C62.9395 11.3186 62.5251 11.689 61.3129 11.689H58.8589ZM62.7564 12.311C63.8765 12.0296 64.659 11.0202 64.659 9.82231C64.659 9.06647 64.3522 8.38521 63.7677 7.83698C63.0312 7.15572 62.049 6.81473 60.7756 6.81473H57.3218V17.1853H58.8563V13.0515H61.1588C62.3401 13.0515 62.8159 13.5255 62.8159 14.7105V17.1846H64.3812V14.9482C64.3812 13.3186 63.9819 12.6961 62.7546 12.5183L62.7564 12.311ZM49.8376 12.6517H54.5637V11.2892H49.8376V8.17761H55.0242V6.81509H48.2727V17.1853H55.2544V15.8228H49.8376V12.6517ZM44.6975 13.1999V13.912C44.6975 15.4083 44.1297 15.8973 42.7025 15.8973H42.365C40.9382 15.8973 40.2482 15.4527 40.2482 13.3935V10.6072C40.2482 8.53329 40.9694 8.10374 42.3962 8.10374H42.7029C44.0993 8.10374 44.5445 8.60751 44.5598 9.99979H46.2476C46.0942 7.95602 44.6823 6.66521 42.5651 6.66521C41.5368 6.66521 40.6778 6.97644 40.0331 7.56878C39.0676 8.44294 38.5295 9.92449 38.5295 11.9984C38.5295 13.9984 38.99 15.48 39.9407 16.3986C40.5854 17.006 41.4752 17.3308 42.3497 17.3308C43.2704 17.3308 44.1145 16.9752 44.5442 16.205H44.7588V17.1828H46.17V11.837H42.0107V13.1996L44.6975 13.1999ZM31.1634 8.17761H32.8345C34.4151 8.17761 35.2744 8.56305 35.2744 10.6369V13.362C35.2744 15.4359 34.4151 15.821 32.8345 15.821H31.1634V8.17761ZM32.9742 17.1853C35.905 17.1853 36.9942 15.0368 36.9942 11.9998C36.9942 8.91838 35.8281 6.81473 32.9434 6.81473H29.6293V17.1853H32.9742ZM22.2179 12.6517H26.9439V11.2892H22.2179V8.17761H27.4044V6.81509H20.6529V17.1853H27.6346V15.8228H22.2179V12.6517ZM12.3213 6.81473H10.7563V17.1853H17.8145V15.8228H12.3213V6.81473ZM0 17.1853V24H10.7407V22.4887H1.56495V17.1853H0ZM0 0V6.81473H1.56495V1.51096H10.7407V0H0Z" fill="white"/>
<path d="M79.2041 18C81.6551 18 83.2458 16.3042 83.2945 13.6153H81.509C81.509 15.8917 81.1844 16.5181 79.3826 16.5181H79.058C77.5484 16.5181 76.818 16.0444 76.818 13.9361V11.0639C76.818 8.95556 77.5484 8.48194 79.058 8.48194H79.3826C81.1844 8.48194 81.509 9.10833 81.509 11.3847H83.2945C83.2458 8.69583 81.6713 7 79.2041 7C76.5745 7 75 8.98611 75 12.5C75 16.0139 76.5745 18 79.2041 18Z" fill="white"/>
<path d="M88.9694 18C91.6639 18 93.1735 16.0139 93.1735 12.5C93.1735 8.94028 91.6639 7 88.9694 7C86.2587 7 84.7328 8.94028 84.7328 12.5C84.7328 15.9986 86.2749 18 88.9694 18ZM86.5508 13.9361V11.0639C86.5508 8.925 87.2813 8.48194 88.7908 8.48194H89.1155C90.6251 8.48194 91.3555 8.925 91.3555 11.0639V13.9361C91.3555 16.075 90.6251 16.5181 89.1155 16.5181H88.7908C87.2813 16.5181 86.5508 16.0597 86.5508 13.9361Z" fill="white"/>
<path d="M94.8228 7.15278V17.8472H96.446L96.3161 8.89444H96.5271L99.9683 17.8472H102.549V7.15278H100.926L101.04 16.1056H100.829L97.4037 7.15278H94.8228Z" fill="white"/>
<path d="M104.556 7.15278V17.8472H106.179L106.049 8.89444H106.26L109.701 17.8472H112.282V7.15278H110.659L110.772 16.1056H110.561L107.137 7.15278H104.556Z" fill="white"/>
<path d="M114.662 7.15278V17.8472H122.047V16.4417H116.317V13.1722H121.317V11.7667H116.317V8.55833H121.804V7.15278H114.662Z" fill="white"/>
<path d="M127.868 18C130.319 18 131.91 16.3042 131.959 13.6153H130.173C130.173 15.8917 129.849 16.5181 128.047 16.5181H127.722C126.213 16.5181 125.482 16.0444 125.482 13.9361V11.0639C125.482 8.95556 126.213 8.48194 127.722 8.48194H128.047C129.849 8.48194 130.173 9.10833 130.173 11.3847H131.959C131.91 8.69583 130.336 7 127.868 7C125.239 7 123.664 8.98611 123.664 12.5C123.664 16.0139 125.239 18 127.868 18Z" fill="white"/>
<path d="M136.79 8.55833V17.8472H138.445V8.55833H142V7.15278H133.235V8.55833H136.79Z" fill="white"/>
<path d="M67.2214 12.7406H72.7444L72.7455 14.1031H67.2214V12.7406Z" fill="white"/>
</svg>
